PathFileType	4	(X/Y/Z)	C:\Users\u0145647\OneDrive - KU Leuven\KU Leuven\c3d2osim\CP4\T0\Data\Processed\ViconC3D_CP4_2\CP4_T0_cmj_T1_gapFilled.trc
DataRate	CameraRate	NumFrames	NumMarkers	Units	OrigDataRate	OrigDataStartFrame	OrigNumFrames
100.000000	100.000000	10	47	mm	100.000000	1	459
Frame#	Time	C7			T10			CLAV			STRN			LSHO			RSHO			RBAK			LASI			RASI			LPSI			RPSI			LLAT			RLAT			LF1			LF2			LF3			LTHI			LKNE			LMEK			RF1			RF2			RF3			RTHI			RKNE			RMEK			LT1			LT2			LT3			LTIB			LANK			LMM			RT1			RT2			RT3			RTIB			RANK			RMM			LHEE			LSTL			LLCA			LTOE			LCM5			RHEE			RSTL			RLCA			RTOE			RCM5
		X1	Y1	Z1	X2	Y2	Z2	X3	Y3	Z3	X4	Y4	Z4	X5	Y5	Z5	X6	Y6	Z6	X7	Y7	Z7	X8	Y8	Z8	X9	Y9	Z9	X10	Y10	Z10	X11	Y11	Z11	X12	Y12	Z12	X13	Y13	Z13	X14	Y14	Z14	X15	Y15	Z15	X16	Y16	Z16	X17	Y17	Z17	X18	Y18	Z18	X19	Y19	Z19	X20	Y20	Z20	X21	Y21	Z21	X22	Y22	Z22	X23	Y23	Z23	X24	Y24	Z24	X25	Y25	Z25	X26	Y26	Z26	X27	Y27	Z27	X28	Y28	Z28	X29	Y29	Z29	X30	Y30	Z30	X31	Y31	Z31	X32	Y32	Z32	X33	Y33	Z33	X34	Y34	Z34	X35	Y35	Z35	X36	Y36	Z36	X37	Y37	Z37	X38	Y38	Z38	X39	Y39	Z39	X40	Y40	Z40	X41	Y41	Z41	X42	Y42	Z42	X43	Y43	Z43	X44	Y44	Z44	X45	Y45	Z45	X46	Y46	Z46	X47	Y47	Z47

1	0	-165.79	1437.2	-314.51	-138.72	1184.8	-351.94	-165.29	1356.3	-199.29	-160.24	1204	-176.26	46.571	1400.7	-230.51	-359.7	1381.7	-274	-283.82	1351	-358.62	-77.15	923.18	-172.52	-273.3	922.44	-225.72	-97.958	961.92	-353.1	-167.8	966.69	-373.74	-13.782	991.73	-219.25	-302.16	996.43	-293.43	44.885	682.31	-196.81	39.578	725.41	-213.81	49.437	676.23	-230.41	105.75	612.39	-214.64	59.894	475.29	-189.68	NaN	NaN	NaN	-335.51	650.68	-305.07	-340.97	684.66	-285.86	-316.42	681.06	-343.16	-377.6	590.88	-310.58	-330.34	464.63	-261.94	NaN	NaN	NaN	104.46	316.96	-273.26	92.115	346.39	-220.86	92.906	360.63	-271.63	148.18	247.69	-230.3	121.31	85.296	-327.94	39.064	74.951	-290.82	-351.46	320.07	-308.38	-343.87	359.7	-276.7	-338.47	367.75	-327.44	-401.3	253.32	-316.7	-350.9	72.692	-336.37	-276.73	77.557	-289.07	67.246	59.857	-365.03	48.422	45.638	-296.56	123.36	56.406	-325.83	128.75	48.38	-196.57	168.76	42.999	-223.44	-293.35	62.662	-365.8	-283.41	42.018	-294.2	-353.85	47.07	-330.38	-382.58	44.73	-207.66	-420.14	31.584	-254.17
2	0.01	-165.75	1437.2	-314.35	-138.66	1184.8	-351.74	-165.34	1356.4	-199.09	-160.27	1204.1	-176.09	46.598	1400.7	-230.31	-359.67	1381.8	-273.91	-283.76	1351	-358.51	-77.215	923.18	-172.23	-273.31	922.42	-225.56	-97.854	961.95	-352.88	-167.74	966.7	-373.55	-13.778	991.82	-219	-302.12	996.46	-293.31	46.431	683	-197.23	39.717	725.34	-213.78	49.417	676.23	-230.23	105.78	612.36	-214.47	59.841	475.26	-189.65	NaN	NaN	NaN	-335.47	650.71	-305.03	-340.94	684.69	-285.83	-316.38	681.09	-343.11	-377.59	590.93	-310.58	-330.33	464.62	-261.97	NaN	NaN	NaN	104.43	316.97	-273.19	92.066	346.38	-220.83	92.581	360.23	-271.32	148.18	247.66	-230.25	120.7	84.667	-327.64	39.076	74.933	-290.82	-351.46	320.07	-308.4	-343.87	359.7	-276.71	-338.46	367.75	-327.47	-401.27	253.35	-316.72	-350.82	72.625	-336.44	-276.73	77.588	-289.05	67.262	59.864	-365.04	48.445	45.604	-296.56	123.39	56.392	-325.79	128.77	48.384	-196.57	168.76	42.99	-223.45	-293.34	62.659	-365.79	-283.44	41.992	-294.18	-353.88	47.114	-330.27	-382.6	44.737	-207.66	-420.14	31.572	-254.2
3	0.02	-165.67	1437.3	-314.21	-138.61	1184.8	-351.52	-165.34	1356.4	-198.9	-160.31	1204.1	-175.95	46.621	1400.7	-230.08	-359.64	1381.9	-273.85	-283.7	1351.1	-358.39	-77.259	923.19	-171.96	-273.33	922.44	-225.41	-97.81	961.97	-352.63	-167.68	966.71	-373.35	-13.753	991.56	-219.16	-302.11	996.47	-293.19	46.314	683.07	-196.82	39.181	725.41	-213.01	49.392	676.23	-230.04	105.76	612.23	-214.21	59.777	475.24	-189.53	NaN	NaN	NaN	-335.43	650.73	-305.01	-340.93	684.68	-285.79	-316.35	681.12	-343.07	-377.55	590.93	-310.6	-330.31	464.63	-261.99	NaN	NaN	NaN	104.41	316.98	-273.18	92.025	346.37	-220.75	92.621	360.33	-271.28	148.16	247.65	-230.16	120.68	84.658	-327.63	39.061	74.964	-290.85	-351.44	320.08	-308.42	-343.86	359.71	-276.72	-338.42	367.76	-327.49	-401.26	253.34	-316.72	-350.79	72.641	-336.44	-276.72	77.578	-289.09	67.251	59.86	-365.04	48.405	45.611	-296.51	123.11	56.171	-325.45	128.77	48.395	-196.56	168.78	42.972	-223.44	-293.33	62.641	-365.78	-283.38	41.997	-294.21	-353.88	47.114	-330.27	-382.62	44.756	-207.65	-420.14	31.571	-254.2
4	0.03	-165.58	1437.3	-314.09	-138.55	1184.8	-351.42	-165.4	1356.5	-198.74	-160.37	1204.1	-175.8	46.657	1400.7	-229.84	-359.63	1382	-273.77	-283.61	1351.2	-358.3	-77.338	923.21	-171.69	-273.36	922.43	-225.26	-97.772	962.02	-352.37	-167.64	966.78	-373.15	-13.795	991.56	-218.86	-302.09	996.47	-293.08	46.089	682.98	-196.35	39.132	725.41	-212.82	49.353	676.24	-229.89	105.54	612.29	-214.14	59.731	475.25	-189.46	NaN	NaN	NaN	-335.39	650.73	-304.97	-340.92	684.68	-285.74	-316.28	681.14	-343.01	-377.52	590.95	-310.58	-330.28	464.62	-261.99	NaN	NaN	NaN	104.39	317.01	-273.13	91.987	346.37	-220.7	92.452	360.14	-271.03	148.12	247.69	-230.19	121.32	85.321	-327.92	39.065	74.955	-290.83	-351.42	320.08	-308.4	-343.83	359.72	-276.73	-338.38	367.77	-327.51	-401.26	253.35	-316.73	-350.76	72.626	-336.46	-276.71	77.606	-289.08	67.254	59.864	-365.05	48.396	45.596	-296.53	123.38	56.422	-325.78	128.78	48.375	-196.55	168.79	42.939	-223.45	-293.32	62.645	-365.8	-283.38	41.993	-294.21	-353.87	47.119	-330.27	-382.6	44.743	-207.66	-420.13	31.565	-254.21
5	0.04	-165.53	1437.3	-313.97	-138.52	1184.8	-351.27	-165.38	1356.5	-198.59	-160.4	1204.2	-175.61	46.688	1400.8	-229.64	-359.57	1382.1	-273.72	-283.53	1351.3	-358.21	-77.401	923.21	-171.44	-273.38	922.45	-225.08	-97.731	962.06	-352.13	-167.59	966.8	-372.95	-13.831	991.57	-218.53	-302.07	996.51	-292.97	46.002	682.98	-196.06	39.067	725.38	-212.6	49.319	676.23	-229.69	105.65	612.39	-213.88	59.65	475.19	-189.35	NaN	NaN	NaN	-335.36	650.71	-304.93	-340.9	684.67	-285.69	-316.21	681.16	-342.95	-377.5	590.94	-310.52	-330.28	464.61	-261.98	NaN	NaN	NaN	104.34	316.99	-273.08	91.952	346.35	-220.64	92.442	360.14	-270.94	148.12	247.71	-230.13	121.27	85.283	-327.88	39.03	74.902	-290.77	-351.4	320.09	-308.41	-343.82	359.72	-276.73	-338.38	367.76	-327.5	-401.22	253.35	-316.75	-350.79	72.639	-336.43	-276.7	77.575	-289.08	67.267	59.849	-365.04	48.414	45.596	-296.52	123.17	56.243	-325.43	128.78	48.363	-196.53	168.79	42.921	-223.44	-293.29	62.634	-365.79	-283.38	41.971	-294.21	-353.88	47.134	-330.28	-382.57	44.656	-207.72	-420.13	31.557	-254.22
6	0.05	-165.45	1437.4	-313.84	-138.47	1184.8	-351.05	-165.41	1356.6	-198.41	-160.44	1204.3	-175.44	46.731	1400.8	-229.44	-359.52	1382.2	-273.66	-283.46	1351.4	-358.11	-77.488	923.23	-171.19	-273.4	922.44	-224.95	-97.713	962.12	-351.92	-167.57	966.83	-372.73	-13.878	991.57	-218.22	-302.07	996.5	-292.81	45.886	682.98	-195.83	38.978	725.32	-212.38	49.302	676.28	-229.53	105.57	612.35	-213.67	59.591	475.21	-189.31	NaN	NaN	NaN	-335.33	650.73	-304.86	-340.86	684.68	-285.63	-316.19	681.19	-342.86	-377.43	590.87	-310.42	-330.25	464.6	-261.97	NaN	NaN	NaN	104.31	316.99	-272.99	91.901	346.33	-220.6	92.726	360.56	-271.44	148.05	247.67	-229.97	120.67	84.673	-327.62	39.107	75.011	-290.93	-351.42	320.05	-308.15	-343.8	359.7	-276.72	-338.25	367.72	-327.47	-401.19	253.36	-316.76	-350.73	72.638	-336.47	-276.67	77.585	-289.12	67.232	59.87	-365.01	48.428	45.597	-296.56	123.13	56.222	-325.42	128.77	48.365	-196.53	168.81	42.886	-223.46	-293.28	62.666	-365.9	-283.38	41.995	-294.21	-353.88	47.143	-330.28	-382.56	44.639	-207.72	-420.13	31.542	-254.24
7	0.06	-165.37	1437.4	-313.74	-138.43	1184.7	-350.93	-165.45	1356.6	-198.26	-160.48	1204.4	-175.23	46.74	1400.9	-229.22	-359.47	1382.3	-273.6	-283.37	1351.5	-358.03	-77.56	923.21	-170.99	-273.42	922.43	-224.78	-97.671	962.14	-351.7	-167.54	966.87	-372.52	-13.898	991.61	-217.94	-302.06	996.48	-292.67	45.872	682.96	-195.68	38.933	725.33	-212.14	49.279	676.27	-229.36	105.36	612.36	-213.51	59.499	475.17	-189.26	NaN	NaN	NaN	-335.31	650.74	-304.81	-340.83	684.68	-285.55	-316.15	681.2	-342.77	-377.42	590.89	-310.39	-330.22	464.59	-261.96	NaN	NaN	NaN	104.27	316.98	-272.96	91.842	346.33	-220.52	92.615	360.47	-271.31	147.96	247.62	-229.94	121.19	85.227	-327.84	39.085	75.022	-290.93	-351.41	320.07	-308.13	-343.77	359.69	-276.7	-338.2	367.72	-327.46	-401.19	253.38	-316.78	-350.7	72.65	-336.48	-276.39	77.909	-289.67	67.216	59.867	-365.02	48.375	45.586	-296.52	123.1	56.187	-325.41	128.79	48.367	-196.51	168.81	42.864	-223.44	-293.26	62.649	-365.89	-283.28	42.05	-294.33	-353.9	47.142	-330.28	-382.6	44.709	-207.68	-420.14	31.534	-254.22
8	0.07	-165.32	1437.5	-313.62	-138.38	1184.7	-350.75	-165.42	1356.7	-198.11	-160.52	1204.5	-175.06	46.749	1400.9	-229.02	-359.41	1382.5	-273.56	-283.31	1351.6	-357.93	-77.615	923.21	-170.78	-273.47	922.42	-224.58	-97.634	962.14	-351.52	-167.5	966.91	-372.33	-13.915	991.62	-217.67	-302.08	996.47	-292.52	45.838	682.98	-195.58	38.888	725.35	-211.97	49.24	676.22	-229.17	105.51	612.7	-213.72	59.408	475.15	-189.22	NaN	NaN	NaN	-335.28	650.76	-304.73	-340.81	684.69	-285.46	-316.09	681.26	-342.67	-377.41	590.92	-310.35	-330.2	464.59	-261.96	NaN	NaN	NaN	104.23	316.99	-272.93	91.773	346.33	-220.5	92.435	360.31	-271.14	147.93	247.58	-229.93	120.64	84.674	-327.58	39.093	75.007	-290.91	-351.39	320.06	-308.17	-343.74	359.72	-276.73	-338.2	367.75	-327.46	-401.15	253.39	-316.81	-350.69	72.633	-336.46	-276.41	77.886	-289.63	67.242	59.828	-365.02	48.364	45.61	-296.5	123.14	56.291	-325.48	128.77	48.383	-196.51	168.8	42.896	-223.43	-293.26	62.658	-365.88	-283.28	42.058	-294.29	-353.9	47.164	-330.28	-382.62	44.714	-207.68	-420.12	31.544	-254.24
9	0.08	-165.23	1437.6	-313.51	-138.36	1184.7	-350.6	-165.46	1356.8	-197.92	-160.55	1204.6	-174.89	46.767	1401	-228.81	-359.38	1382.6	-273.49	-283.27	1351.7	-357.84	-77.674	923.25	-170.54	-273.5	922.42	-224.45	-97.601	962.2	-351.34	-167.49	966.95	-372.11	-13.93	991.63	-217.43	-302.06	996.46	-292.4	45.416	682.83	-195.41	38.832	725.31	-211.79	49.195	676.26	-229.05	105.18	612.21	-213.08	59.316	475.16	-189.2	NaN	NaN	NaN	-335.28	650.79	-304.65	-340.78	684.7	-285.36	-316.07	681.26	-342.64	-377.4	590.94	-310.3	-330.18	464.59	-261.94	NaN	NaN	NaN	104.18	317.02	-272.93	91.699	346.35	-220.49	92.355	360.31	-271.13	147.86	247.59	-229.93	120.62	84.674	-327.62	39.097	74.988	-290.94	-351.38	320.07	-308.14	-343.75	359.73	-276.72	-338.18	367.75	-327.46	-401.18	253.37	-316.8	-350.7	72.644	-336.48	-276.63	77.586	-289.18	67.211	59.88	-365.03	48.359	45.62	-296.49	123.09	56.243	-325.44	128.76	48.361	-196.49	168.79	42.863	-223.45	-293.25	62.671	-365.89	-283.35	41.934	-294.16	-353.89	47.154	-330.28	-382.63	44.705	-207.69	-420.12	31.528	-254.24
10	0.09	-165.16	1437.6	-313.38	-138.33	1184.7	-350.44	-165.53	1356.9	-197.72	-160.59	1204.7	-174.71	46.765	1401.1	-228.55	-359.37	1382.8	-273.42	-283.22	1351.9	-357.75	-77.711	923.23	-170.35	-273.53	922.43	-224.24	-97.592	962.2	-351.12	-167.49	966.98	-371.93	-13.931	991.66	-217.19	-302.11	996.43	-292.24	45.718	682.9	-195.25	38.799	725.35	-211.64	49.128	676.23	-228.87	105.03	612.18	-212.94	59.212	475.14	-189.16	NaN	NaN	NaN	-335.27	650.79	-304.56	-340.77	684.7	-285.27	-316.02	681.28	-342.51	-377.39	590.95	-310.23	-330.16	464.58	-261.94	NaN	NaN	NaN	104.11	317	-272.92	91.604	346.35	-220.48	92.258	360.33	-271.14	147.78	247.61	-229.89	121.07	85.183	-327.81	39.08	74.959	-290.94	-351.37	320.06	-308.13	-343.72	359.73	-276.73	-338.19	367.77	-327.46	-401.15	253.37	-316.79	-350.67	72.638	-336.5	-276.37	77.881	-289.67	67.173	59.869	-365	48.329	45.576	-296.54	123.09	56.265	-325.43	128.73	48.367	-196.49	168.79	42.863	-223.45	-293.25	62.682	-365.88	-283.25	42.011	-294.32	-353.88	47.139	-330.3	-382.57	44.614	-207.73	-420.11	31.52	-254.24
